<svg width="22" height="24" viewBox="0 0 22 24" fill="none" xmlns="http://www.w3.org/2000/svg">
<path d="M4.88889 10.8H7.33333V13.2H4.88889V10.8ZM22 4.8V21.6C22 22.92 20.9 24 19.5556 24H2.44444C1.79614 24 1.17438 23.7471 0.715961 23.2971C0.257539 22.847 0 22.2365 0 21.6L0.0122222 4.8C0.0122222 3.48 1.08778 2.4 2.44444 2.4H3.66667V0H6.11111V2.4H15.8889V0H18.3333V2.4H19.5556C20.9 2.4 22 3.48 22 4.8ZM2.44444 7.2H19.5556V4.8H2.44444V7.2ZM19.5556 21.6V9.6H2.44444V21.6H19.5556ZM14.6667 13.2H17.1111V10.8H14.6667V13.2ZM9.77778 13.2H12.2222V10.8H9.77778V13.2Z" fill="url(#paint0_linear)"/>
<defs>
<linearGradient id="paint0_linear" x1="-0.572917" y1="4.57143" x2="21.8758" y2="5.22789" gradientUnits="userSpaceOnUse">
<stop stop-color="#93E08C"/>
<stop offset="1" stop-color="#78CEBF"/>
</linearGradient>
</defs>
</svg>
